<svg width="40" height="40" xmlns="http://www.w3.org/2000/svg"><g transform="translate(2 2)" fill="none" fill-rule="evenodd"><circle stroke="#2C84D8" stroke-width="1.14" cx="18.24" cy="18.24" r="18.81"/><path d="M18.24 0c10.074 0 18.24 8.166 18.24 18.24 0 6.097-2.991 11.495-7.586 14.807a794.73 794.73 0 00-1.6-.3c4.832-3.02 8.046-8.388 8.046-14.507 0-9.444-7.656-17.1-17.1-17.1-9.444 0-17.1 7.656-17.1 17.1 0 5.766 2.854 10.866 7.227 13.964a7.635 7.635 0 00-1.385.387C2.731 29.253 0 24.065 0 18.24 0 8.166 8.166 0 18.24 0zm0 2.28c8.814 0 15.96 7.146 15.96 15.96 0 6.176-3.508 11.533-8.64 14.187a210.254 210.254 0 00-2.82-.507c-1.686-.285-5.058.855-9.441.285a20.063 20.063 0 00-3.112-.184C5.457 29.253 2.28 24.117 2.28 18.24c0-8.814 7.146-15.96 15.96-15.96zm-.143 23.37s-1.567 2.269-1.567 3.135a1.566 1.566 0 103.135 0c0-.866-1.568-3.135-1.568-3.135zm5.7-3.42s-1.567 2.269-1.567 3.135a1.566 1.566 0 103.135 0c0-.866-1.568-3.135-1.568-3.135zm-11.4-.57s-1.567 2.269-1.567 3.135a1.566 1.566 0 103.135 0c0-.866-1.568-3.135-1.568-3.135zM15.39 6.772a6.843 6.843 0 00-6.622 5.12 4.56 4.56 0 002.062 8.628h14.82a4.56 4.56 0 00.562-9.086A3.635 3.635 0 0020.66 9.25a6.83 6.83 0 00-5.27-2.478z" fill="#2C84D8"/></g></svg>