<svg width="85" height="35" xmlns="http://www.w3.org/2000/svg"><g fill="#FFF"><path d="M11.012 7.454C5.021 7.454.028 9.996.028 17.664c0 6.076 3.357 9.901 11.139 9.901 9.159 0 9.746-6.033 9.746-6.033h-4.438s-.951 3.249-5.579 3.249c-3.769 0-6.48-2.546-6.48-6.115h16.961v-2.24c0-3.53-2.241-8.972-10.365-8.972zm-.155 2.862c3.588 0 6.034 2.198 6.034 5.492H4.515c0-3.497 3.192-5.492 6.342-5.492z"/><path d="M21.374.028v23.686c0 1.345-.096 3.232-.096 3.232h4.233s.152-1.355.152-2.594c0 0 2.091 3.271 7.778 3.271 5.988 0 10.055-4.157 10.055-10.113 0-5.541-3.736-9.998-10.046-9.998-5.908 0-7.744 3.19-7.744 3.19V.029h-4.332zm10.984 10.414c4.066 0 6.652 3.018 6.652 7.068 0 4.343-2.986 7.184-6.623 7.184-4.34 0-6.681-3.39-6.681-7.146 0-3.5 2.1-7.106 6.652-7.106z"/><path d="M54.016 7.454c-9.013 0-9.591 4.935-9.591 5.724h4.486s.235-2.881 4.796-2.881c2.963 0 5.26 1.356 5.26 3.964v.928h-5.26c-6.983 0-10.675 2.043-10.675 6.188 0 4.08 3.411 6.3 8.02 6.3 6.283 0 8.306-3.472 8.306-3.472 0 1.381.107 2.741.107 2.741h3.988s-.155-1.686-.155-2.765v-9.325c0-6.115-4.932-7.402-9.282-7.402zm4.95 10.52v1.237c0 1.615-.995 5.628-6.86 5.628-3.21 0-4.587-1.603-4.587-3.462 0-3.381 4.636-3.403 11.448-3.403z"/><path d="M60.882 8.228h5.048l7.243 14.512L80.4 8.228h4.572L71.808 34.064h-4.796l3.799-7.202z"/></g></svg>