<svg width="54" height="45" xmlns="http://www.w3.org/2000/svg" xmlns:xlink="http://www.w3.org/1999/xlink"><defs><path id="a" d="M.17.819h52.154v42.284H.17z"/></defs><g transform="matrix(1 0 0 -1 .04 44.78)" fill="none" fill-rule="evenodd"><mask id="b" fill="#fff"><use xlink:href="#a"/></mask><g mask="url(#b)" fill="#FFF" fill-rule="nonzero"><path d="M10.076 5.623l.005 3.588c2.249 0 3.075.113 3.467-2.645h.237v3.07L7.66 9.633v-.422h1.06V1.314H7.55V.898h6.313v3.227h-.315c-.315-2.44-.934-2.812-2.668-2.812h-.804V5.15h.465c.78-.02 1.222-.474 1.38-1.813h.287l-.003 3.967c-.004-.007-.281 0-.281 0 0-.02-.056-1.705-1.416-1.681h-.432zm-2.503-.158H4.117v-.392H5.3v-2.84c-.2-.72-1.263-1.021-1.58-1.021-2.207 0-2.048 3.229-2.048 4.093 0 .791-.08 4.096 2.048 4.096 1.5 0 2.29-1.493 2.605-2.834h.24c0 .552.01 3.181.003 3.175.006.02-1.028-.742-1.031-.73.023.005-.473.706-1.817.706-2.605 0-3.56-2.599-3.552-4.413C.182 3.646.946.82 3.721.82c.873 0 1.488.444 1.817.948.003.01 1.1-.866 1.104-.87v4.176h.93v.392zm30.19-1.415l1.26 3.775 1.344-3.776h-2.604zM32.87 5.556h-1.417v3.659h1.813c1.064-.161 1.107-1.391 1.107-1.782 0-.947-.395-1.877-1.503-1.877m15.084-1.433c-.316-2.439-.934-2.805-2.668-2.805h-.106v7.895h1.104v.426h-3.63v-.426h1.105V1.32h-.877l-3.224 8.557h-.475c.01.005-2.679-7.764-2.685-7.787.006.023-.203-.666-.646-.752-.407-.02-.377.193-.377.268v1.496c0 .393-.03 1.286-.438 1.695-.458.46-1.24.494-1.221.512 0 0 1.983.41 1.983 2.294 0 1.321-.919 1.978-2.455 2.036h-4.357v-.425H30.1V1.318h-1.114v-.42h3.575v.42h-1.115v3.796h1.486C35.512 4.9 32.49.894 35.87.898H38v.42c-.118 0-.9-.02-.948.522-.031.394.514 1.806.514 1.806h2.901c-.001.006.902-2.328.91-2.328h-1.01v-.42h7.901v3.226h-.315zM24.688 9.216c2.249 0 3.08.108 3.472-2.65h.237v3.07h-8.931v-.42h.233c.316 0 1.063-.023 1.107-.682V3.497l-4.178 6.139h-2.275v-.42h.377c.449 0 1.078-.02 1.107-.682V2.08c0-.63-.944-.868-1.338-.868h-.005V.899h3.08v.313c-.395 0-1.344.238-1.344.868l.01 5.683c1.655-2.365 4.776-6.87 4.805-6.864h.156v7.635c.043.66.791.682 1.105.682h1.026V1.313h-1.17V.9h6.314v3.226h-.316c-.315-2.44-.933-2.812-2.668-2.812h-.804V5.15h.465c.779-.019 1.222-.474 1.38-1.812h.288l-.003 3.966c-.006-.007-.281 0-.281 0 0-.02-.057-1.706-1.418-1.68h-.431v3.592zm27.55-.001v.425h-3.562v-.425h1.118l.005-7.892h-1.123V.898h3.562v.425H51.12v7.892zM39.54 16.896a.77.77 0 00.597.5l2.883.643-.26 2.571-.009.056c-.071.337-.285 1.363-1.625 1.473-5.153.416-6.348 1.18-7.6 1.99a.043.043 0 00-.005.01l-.008-.004-.08.054c-1.34.865-2.668.873-2.799.869-1.46-.001-3.306-.58-3.457-.628a51.26 51.26 0 01-1.265-.393c-1.615-.518-3.009-.968-5.35-.898l-.427.012-.11-.412c-.085-.318-.74-2.908-.108-4.57-.567-.447-.566-.963-.563-1.033.023-.569-.112-.709-.155-.755-.27-.28-1.168-.317-1.924-.317h-.285l-.163-.222c-.465-.642-1.472-.792-2.117-.628-.284.863-.291 1.522-.018 1.915.323.464 1.007.515 1.287.515h.162c.684 0 1.24.56 1.24 1.248v4.634c.21.322.376.693.523 1.11 1.13.181 1.996 1.14 1.996 2.294 0 .443-.13.87-.366 1.236 1.046.503 1.94 1.53 1.94 2.88 0 1.346-.679 1.964-1.322 2.37.181.517.481 1.427.684 2.342l.905 3.24c.405 1.272 1.462 2.092 2.695 2.092h15.937c-.675-.95-1.633-1.398-2.96-1.398h-9.644l-.504-1.079h8.643c-.68-1.08-1.674-1.589-3.085-1.589h-6.267l-.503-1.079h5.59c-.676-1.04-1.66-1.53-3.045-1.53H25.18l-.503-1.08h3.581c.033-.044.122-.207.122-.645 0-.692-.583-1.257-1.299-1.257-.246 0-.456.057-.824.207a79.64 79.64 0 01-.476.201l-.83-.745c.156-.066.31-.133.466-.198v-.001c.72-.311 1.12-.474 1.664-.474.66 0 1.254.273 1.675.708.615-.039 1.604-.12 2.563-.2 1.145-.094 2.227-.182 2.786-.212l.793-.04a58.38 58.38 0 001.345-.076c2.176-3.533 3.29-3.997 7.503-4.501.303-.545.578-1.119.838-1.698v-6.916c.024-.317.024-.423-.018-.482-.147-.19-.797-.461-1.024-.555l-3.55-1.338c-.47.637-.64 1.303-.452 1.783m-.768-1.868h-7.02l3.008 3.176c.608.627.801 1.382.546 2.123-.146.428-.543 1.247-.957 2.087 1.194-.555 3.004-1.053 6.688-1.35.444-.037.56-.188.65-.592l.161-1.589-1.925-.43a1.847 1.847 0 01-1.39-1.166c-.264-.677-.175-1.475.239-2.259m-12.662 0c-.194.764-.115 1.374.234 1.773.332.38.844.497 1.205.445l2.053-.381.052-.008h.285l1.45 1.562.013.014c.248.29 1.002 1.163.232 2.278l-1.938 3.193c.322.046.643.074.94.074l.014.001c.01 0 .982.014 2.023-.592.14-.303.336-.7.555-1.143.407-.825.913-1.851 1.055-2.266.045-.13.181-.526-.304-1.028l-3.715-3.922H26.11zm-.581 2.482c-.391-.448-.772-1.23-.525-2.482h-6.609c.71.07 1.226.237 1.582.607.433.45.471 1.066.457 1.504.014.04.086.188.41.334l.57.26-.343.525c-.565.868-.318 2.765-.099 3.795h.05c2.242 0 3.692.465 5.22.958.4.128.81.26 1.245.387l.013.004c.008.003.456.144 1.064.286l2.155-3.55.018-.03c.215-.306.242-.509-.149-.963l-1.08-1.166-1.77.329-.016.002a2.478 2.478 0 01-2.193-.8m-11.726.234c-.46-.661-.515-1.573-.17-2.716h-1.116v8.72c.4.06.83.174 1.232.357a8.837 8.837 0 00-.147-1.082 16.174 16.174 0 01-.05-.295l-.108-.63h.64c.955 0 1.669.15 2.216.434v-3.64a.166.166 0 00-.16-.17h-.162c-.95 0-1.742-.356-2.175-.978m-2.368-1.77l-5.088 1.324-5.09-1.324v9.102l5.09 1.32 5.088-1.32v-9.102zm-9.524-.946l4.436 1.155 4.435-1.155h-8.87zM3.686 28.43c.213.324.699.604 1.307.499l.461-.08.145.444c.039.119.09.207.163.275.13.122.323.18.569.172.65-.02 1.465-.474 2.127-1.183a5.65 5.65 0 00.643-.86l.118-.193.107-.169c.024-.041.35-.533.328-.565.224.315.447.63.671.942.006.009-.004.038-.023.08a4.37 4.37 0 01-.24.404l-.05.08-.004.007-.076.119a6.08 6.08 0 00-.229.378l1.408 2.252c.352-.074.65-.085.793-.085h.035c1.986 0 4.04 1.146 4.04 3.064v.045c-.025.523-.123 1.021-.201 1.421-.052.264-.1.513-.1.638 0 .209.295.442.718.442h.642l-.29 1.664c.903.665 1.458 1.749 1.43 2.784.974-.747 1.66-2.041 1.786-3.42.037-.399-.042-.959-.171-1.548l-.07-.245.012-.004c-.23-.96-.57-1.95-.749-2.417l-.167-.433.404-.229c.726-.41 1.17-.71 1.17-1.664 0-1.094-.985-1.933-1.937-2.111l-1.3-.243 1.1-.735c.353-.235.563-.62.563-1.026 0-.687-.584-1.247-1.302-1.247h-.415l-.117-.38c-.404-1.316-.843-1.96-2.253-2.096.064.399.11.783.11 1.327 0 .129-.011.487-.017.601l-.063 1.227-.862-.876c-.293-.297-.812-.533-1.382-.646v1.07l-6.17 1.602-2.195-.57c-.49.49-.59 1.299-.467 1.488m6.663 3.962c.016.074.076.133.14.132l.93-.03c1.132.04 2.286.507 2.417 1.686 0 .798-.567 1.576-1.368 1.576-.428 0-.91-.296-1.45-.653-.352-.235-.631-.419-.842-.419-.142 0-.258.096-.258.173 0 .013.002.027.007.04l.594.794-.513.345c-.11.071-.28.207-.299.307-.01.047.06.133.081.159.213.248.457.55.703.922.152.212.24.33.493.33a.453.453 0 00.456-.45c0-.163.18-.292.403-.292.222 0 .323.158.46.293 0 0 .529.486.25.716-.32.26-1.603-.274-1.246.903l.09.168c.136.181.75.635 2.015.635.24 0 .494-.017.753-.048l.19-.025 2.688 1.658a.506.506 0 00.031-.096l.004-.017c.14-.814-.374-1.783-1.194-2.253l-.327-.188.211-1.213c-.69-.211-1.172-.765-1.172-1.43 0-.23.054-.5.121-.844.075-.383.16-.814.182-1.253 0-1.262-1.742-2.097-3.215-2.049l-.037.001c-.062.002-1 .077-1.229.258a.183.183 0 00-.069.164m2.228 8.42c.17.217.446.458.776.676.258.17.594.321.923.417.521.15 1.12.16 1.739.041l-1.907-1.177a6.65 6.65 0 01-.696.038c-.322 0-.62-.027-.893-.07.02.025.038.052.058.076m29.057.277h7.19c-.673-.95-1.632-1.398-2.96-1.398h-5.308c.424.371.783.838 1.078 1.398m-.36-4.066h-5.308c.47.411.86.943 1.172 1.59h7.222c-.68-1.08-1.674-1.59-3.086-1.59m-4.225-2.61h-5.307c.453.4.834.912 1.141 1.531h7.213c-.677-1.038-1.66-1.53-3.047-1.53m1.22-4.05c1.682-.277 3.059-1.035 4.093-2.25.221-.26.434-.537.645-.835-2.829.37-3.813.782-5.395 3.184.21-.028.428-.06.658-.1m11.286-11.64c.104-.167.192-.324.278-.476.105-.186.21-.368.33-.557-.818.05-1.439.504-2.012 1.362.529.185 1.168.054 1.404-.33m-6.725-3.695l1.103.417.016.006c1.566.648 1.788 1.054 1.716 2.095v4.21c1.191-3.026 2.317-5.153 4.627-5.152.314 0 .65.038 1.01.12l.902.204-.62.683c-.396.437-.589.775-.81 1.167-.09.16-.185.328-.299.512-.54.876-1.826 1.174-2.867.707-.473.938-.948 2.161-1.52 3.67l-.125.288-.298.68v.037h-.017c-.354.797-.733 1.597-1.185 2.346-.411.681-.83 1.269-1.278 1.796-1.205 1.415-2.8 2.294-4.74 2.615-1.34.22-2.291.268-3.493.327-.25.011-.51.026-.788.04-.544.03-1.669.121-2.757.212-.733.06-1.485.12-2.076.164.04.167.063.339.063.518 0 .24-.022.455-.065.646h7.72c1.989 0 3.43.88 4.285 2.61 1.979.019 3.41.916 4.255 2.667h.274c2.06 0 3.533.94 4.377 2.794l.348.763H24.436c-1.718 0-3.181-1.123-3.728-2.855l-.017-.06c-.445 1.239-1.259 2.29-2.302 2.911-1.45.864-3.1 1.153-4.414.775a4.563 4.563 0 01-1.218-.554c-.302-.198-.724-.518-1.033-.911a8.487 8.487 0 01-.893-1.432 1.724 1.724 0 01-.349-.374l-.313-.588-.017-.032a7.265 7.265 0 00-1.185-1.847c-.352-.411-.37-.802-.323-1.057.052-.278.202-.507.362-.678l-.01-.016a1.19 1.19 0 01-.158-.595c0-.69.6-1.212 1.338-1.212.537 0 .976.25 1.44.558.19.126.689.457.852.475a.411.411 0 00.395-.395c0-.565-.729-.87-1.251-.907l-1.062-.114c-.764-.073-1.127-.478-1.127-.84a.92.92 0 01.296-.69l.079-.08.27-.24-1.128-1.814c-.803.743-1.742 1.195-2.575 1.22-.539.018-1.004-.144-1.346-.468a1.711 1.711 0 01-.262-.32h-.019c-.89 0-1.606-.476-1.957-1.012-.38-.585-.244-1.597.24-2.37l-2.843-.737V12.319h52.146v2.709h-9.493z"/><path d="M10.31 23.678l-3.401.883v-1.114l3.4-.884zm-7.924-1.114l3.401.883v1.114l-3.4-.882zm0-2.24l3.401.881v1.117l-3.4-.883zm7.924 1.115l-3.401.882v-1.115l3.4-.882zm0-2.242l-3.401.884v-1.115l3.4-.883zm-7.924-1.114l3.401.883v1.115l-3.4-.884z"/></g></g></svg>