<svg width="40" height="40" xmlns="http://www.w3.org/2000/svg"><path d="M20 40c-.199 0-.397-.004-.594-.01l4.087-11.232h5.625c.987 0 2.071-.76 2.409-1.687l4.434-12.18c.726-1.994-.417-3.626-2.538-3.626h-7.804L19.07 29.258h-.002l-3.712 10.199C6.55 37.363 0 29.447 0 20 0 10.825 6.178 3.095 14.6.738l-3.83 10.527-6.368 17.493H8.64l5.415-14.864h3.186l-5.415 14.864h4.237l5.046-13.867c.726-1.994-.416-3.626-2.536-3.626H15.01L19.1.021C19.4.008 19.7 0 20 0c11.046 0 20 8.954 20 20s-8.954 20-20 20zm12.101-26.117h-3.185l-4.46 12.237h3.185l4.46-12.237z" fill="#FFF"/></svg>