<svg width="118" height="42" xmlns="http://www.w3.org/2000/svg"><path d="M13 41.983c-3.512-.14-6.385-1.1-8.631-2.885-.429-.34-1.45-1.363-1.793-1.794-.91-1.145-1.53-2.26-1.943-3.497C-.638 30 .016 25.004 2.503 19.521c2.131-4.694 5.418-9.35 11.153-15.797.845-.95 3.36-3.724 3.377-3.724.006 0-.131.237-.304.527-1.491 2.497-2.767 5.44-3.462 7.986-1.117 4.087-.982 7.594.394 10.314.95 1.873 2.577 3.496 4.408 4.393 3.204 1.57 7.895 1.7 13.624.38.394-.091 19.939-5.28 43.432-11.53C98.62 5.82 117.844.71 117.847.714c.007.005-54.582 23.364-82.92 35.482-4.488 1.919-5.688 2.404-7.798 3.144-5.393 1.894-10.224 2.798-14.13 2.643z" fill="#FFF"/></svg>