<svg width="86" height="17" xmlns="http://www.w3.org/2000/svg"><path d="M83.524 15.063v-.347h.223c.122 0 .288.01.288.158 0 .16-.085.189-.23.189h-.28zm0 .243h.149l.345.607h.381l-.383-.63c.198-.014.36-.108.36-.374 0-.332-.229-.438-.614-.438h-.558v1.442h.32v-.607zm1.624-.112c0-.848-.66-1.34-1.393-1.34-.739 0-1.398.492-1.398 1.34 0 .847.66 1.342 1.398 1.342.734 0 1.393-.495 1.393-1.342m-.403 0c0 .618-.452 1.034-.99 1.034v-.005c-.551.005-.997-.411-.997-1.029 0-.617.446-1.03.997-1.03.538 0 .99.413.99 1.03M34.03.846l.001 15.215h4.297V.846H34.03zM.224.825V16.06H4.56V4.493h3.358c1.112 0 1.904.275 2.442.85.679.723.956 1.89.956 4.029v6.689h4.202V7.643c0-6.01-3.83-6.818-7.577-6.818H.224zm40.726.02v15.216h6.97c3.713 0 4.926-.618 6.236-2.002.927-.972 1.525-3.107 1.525-5.436 0-2.14-.507-4.048-1.39-5.236C52.699 1.26 50.404.846 46.98.846h-6.03zm4.262 3.313h1.848c2.68 0 4.414 1.205 4.414 4.327 0 3.125-1.735 4.33-4.414 4.33h-1.848V4.157zM27.835.846l-3.588 12.06L20.81.845h-4.64l4.91 15.215h6.193L32.221.846h-4.386zM57.68 16.06h4.3V.846h-4.3V16.06zM69.728.85l-6 15.207h4.236l.95-2.69h7.102l.899 2.69h4.6L75.468.851h-5.74zm2.79 2.774l2.603 7.124h-5.289l2.685-7.124z" fill="#FFF"/></svg>