<svg width="90" height="45" xmlns="http://www.w3.org/2000/svg"><path d="M0 0v44.415h45.371L89.781.005H0V0zm57.469 39.875v3.313h.5V41.75h.562l.907 1.438H60l-.969-1.438c.484-.06.875-.342.875-.938 0-.652-.4-.937-1.187-.937h-1.25zm.5.438h.687c.338 0 .719.054.719.468 0 .517-.386.563-.813.563h-.593v-1.032.001zm.625-1.657c-1.586 0-2.938 1.222-2.938 2.875 0 1.665 1.352 2.907 2.938 2.907a2.868 2.868 0 002.875-2.907c0-1.653-1.311-2.875-2.875-2.875zm0 .469c1.294 0 2.312 1.045 2.312 2.406 0 1.384-1.018 2.407-2.312 2.407-1.316 0-2.375-1.023-2.375-2.407 0-1.36 1.059-2.406 2.375-2.406zM12.23 7.883c3.224.007 7.165.919 10.009 2.372l-3.07 5.348c-3.117-1.507-4.687-1.651-6.467-1.741-2.641-.141-3.98.803-4 1.821-.023 1.245 2.507 2.369 4.884 3.134 3.606 1.143 8.193 2.676 8.89 7.104l6.596-17.568h7.652l7.72 21.013V8.353h8.837c8.447.009 12.415 3.018 12.415 9.578 0 5.894-4.086 9.406-10.986 9.406h-2.857v8.49H38.759l-1.296-4.06c-1.385.456-2.95.706-4.609.706-1.7 0-3.306-.268-4.716-.745l-1.348 4.099h-8.025l.884-2.376-.324.283c-2.001 1.608-4.505 2.493-7.605 2.553h-.461a20.39 20.39 0 01-10.003-2.661l2.729-5.423c2.958 1.748 4.815 2.138 7.319 2.088 1.299-.029 2.238-.264 2.849-.899.371-.38.562-.861.582-1.374.023-1.409-1.981-2.07-4.436-2.827-1.99-.624-4.243-1.457-6.009-2.751-2.087-1.537-3.084-3.459-3.034-6.167.033-1.977.764-3.753 2.115-5.157 1.944-2.007 5.078-3.233 8.839-3.233zm20.654 9.115h-.06l-2.803 8.84a8.084 8.084 0 002.831.502c.948 0 1.887-.161 2.777-.478l-2.745-8.864zm20.913-2.863h-1.946v7.117h1.946c2.598 0 4.666-.86 4.666-3.604 0-2.657-2.068-3.513-4.666-3.513z" fill="#FFF"/></svg>