<svg width="112" height="18" xmlns="http://www.w3.org/2000/svg"><path d="M110.649.768V4.09c-1.721-.65-3.254-.978-4.595-.978-.795 0-1.427.147-1.903.431-.476.287-.718.64-.718 1.057 0 .554.537 1.047 1.618 1.488l3.124 1.52c2.525 1.205 3.778 2.803 3.778 4.812 0 1.67-.664 3-2.005 3.987-1.332.995-3.124 1.488-5.356 1.488-1.03 0-1.954-.044-2.775-.137-.822-.089-1.766-.27-2.813-.53v-3.477c1.92.65 3.669.978 5.243.978 1.878 0 2.812-.544 2.812-1.642 0-.547-.382-.989-1.16-1.334l-3.47-1.479c-1.28-.579-2.23-1.28-2.853-2.111-.613-.839-.925-1.8-.925-2.898 0-1.538.648-2.776 1.927-3.718 1.29-.934 3.002-1.402 5.13-1.402.692 0 1.489.061 2.371.174.89.12 1.746.267 2.57.449zm-98.267 0V4.09c-1.722-.65-3.252-.978-4.593-.978-.797 0-1.427.147-1.903.431-.475.287-.718.64-.718 1.057 0 .554.544 1.047 1.625 1.488l3.124 1.52c2.516 1.205 3.772 2.803 3.772 4.812 0 1.67-.667 3-1.999 3.987-1.341.995-3.124 1.488-5.362 1.488-1.03 0-1.957-.044-2.779-.137-.821-.089-1.755-.27-2.81-.53v-3.477c1.928.65 3.676.978 5.24.978 1.879 0 2.813-.544 2.813-1.642 0-.547-.38-.989-1.15-1.334l-3.47-1.479c-1.29-.579-2.24-1.28-2.854-2.111-.623-.839-.927-1.8-.927-2.898 0-1.538.643-2.776 1.93-3.718C3.601.613 5.315.145 7.443.145c.7 0 1.486.061 2.379.174.882.12 1.738.267 2.56.449zm3.58-.312h5.088v17.128h-5.088zm21.479 0v3.166h-7.56V7.42h6.558v2.854h-6.557v3.987h7.714v3.323h-12.61V.456zm23.753 0v17.128h-4.75V6.287L51.516 17.74h-2.933l-4.74-11.453v11.297h-3.435V.456h6.211l4.24 10.485L55.295.456zm16.385 0v3.166H70.06V7.42h6.557v2.854H70.06v3.987h7.673v3.323h-12.61V.456zm17.853 0v17.128h-5.397L83.979 6.598v10.986h-3.433V.456H86.1L92 11.252V.456z" fill="#FFF" fill-rule="evenodd"/></svg>