<svg width="118" height="16" xmlns="http://www.w3.org/2000/svg"><path d="M0 1v2.137h3.484L10.302 16h8.39l6.817-12.885 3.483-.022L29 1H18.578v2.1h2.775l-4.814 9.145-5.207-9.112 3.798-.018L15.123 1zm69 0v2.137h3.483L79.301 16h8.39L94.51 3.115l3.484-.022L98 1H87.579v2.1h2.775l-4.815 9.145-5.207-9.112 3.799-.018L84.123 1zM51.183 1v2.137h3.472l.006 10.501H51v2.341l3.663.021H72V9.018h-2.258c-.124 3.697-3.302 4.625-4.64 4.625-1.226 0-3.603-.004-3.603-.004V3.133l3.42-.018L64.915 1H51.183zM39.35 13.645c-2.045 0-3.701-2.54-3.701-5.676s1.656-5.679 3.7-5.679c2.044 0 3.701 2.543 3.701 5.68 0 3.135-1.657 5.675-3.7 5.675zM39.5 0C33.7 0 29 3.583 29 8c0 4.418 4.7 8 10.5 8C45.298 16 50 12.418 50 8c0-4.417-4.702-8-10.5-8zm67.85 13.646c-2.045 0-3.7-2.542-3.7-5.678 0-3.135 1.656-5.677 3.7-5.677 2.043 0 3.7 2.542 3.7 5.677 0 3.136-1.657 5.678-3.7 5.678zM107.5 0C101.7 0 97 3.583 97 8c0 4.418 4.7 8 10.5 8 5.799 0 10.5-3.582 10.5-8 0-4.417-4.701-8-10.5-8z" fill="#FFF" fill-rule="evenodd"/></svg>