<svg xmlns="http://www.w3.org/2000/svg" xmlns:xlink="http://www.w3.org/1999/xlink" width="464" height="106" viewBox="0 0 464 106">
    <defs>
        <path id="a" d="M0 103.506h464.301V.005H0z"/>
    </defs>
    <g fill="none" fill-rule="evenodd">
        <path fill="#263238" d="M0 39.906l12.268 12.417V83.73l7.362 7.305h424.49l7.36-7.305V52.08l12.27-12.174z"/>
        <g transform="translate(0 1.247)">
            <mask id="b" fill="#fff">
                <use xlink:href="#a"/>
            </mask>
            <path fill="#40C4FF" d="M32.834 62.93h18.043v-7.544H32.834v7.544zM51.23 48.548c3.626 0 6.59 2.956 6.59 6.53v8.205c0 3.574-2.964 6.53-6.59 6.53l-18.396.045c.088 0 .132.087.132.264 0 0-.089 0-.132-.045v10.191h-6.855v-31.72H51.23zM67.766 62.93H85.81v-7.544H67.766v7.544zm24.985.353c0 3.574-2.962 6.53-6.589 6.53h-.308c2.254 2.647 4.687 5.47 6.897 8.117v2.338h-7.075l-8.8-10.455-9.11.045c.088 0 .131.087.131.264 0 0-.087 0-.13-.045v10.191H60.91v-31.72h25.251c3.627 0 6.59 2.956 6.59 6.53v8.205zM97.48 80.27h6.9V48.502h-6.9zM135.776 48.503h7.12v31.766h-6.9v-21.31c-3.58 4.235-7.428 8.913-10.967 13.06l-11.01-13.015V80.27h-6.856V48.503h7.077l10.789 12.84 10.748-12.84zM177.695 55.386h-22.463v5.56h18.086v6.883h-18.086v5.558h22.463v6.881h-29.407V48.502h29.407z" mask="url(#b)"/>
            <path fill="#ECEFF1" d="M297.177 48.503v6.883h-22.468v5.56h18.089v6.882h-18.089v12.44h-6.941V48.504zM306.591 63.151h18.044v-7.765h-18.044v7.765zm18.398-14.648c3.627 0 6.59 2.912 6.59 6.53v25.235h-6.944V70.034h-18.044v10.234h-6.853V55.033a6.523 6.523 0 0 1 6.545-6.53h18.706zM343.472 55.386v18.001h24.897v6.881h-25.207a6.522 6.522 0 0 1-6.545-6.528V55.033c0-3.62 2.92-6.531 6.545-6.531h25.207v6.884h-24.897zM402.461 55.386h-22.465v5.56h18.086v6.883h-18.086v5.558h22.465v6.881h-29.408V48.502h29.408zM438.455 57.988h-6.943v-2.602H413.47v5.559h18.44c3.582 0 6.545 2.912 6.545 6.53v6.265c0 3.618-2.963 6.528-6.544 6.528H413.16a6.52 6.52 0 0 1-6.545-6.528v-2.956h6.855v2.603h18.042v-5.558H413.16a6.523 6.523 0 0 1-6.545-6.532v-6.264a6.522 6.522 0 0 1 6.545-6.53h18.75c3.582 0 6.545 2.912 6.545 6.53v2.955z" mask="url(#b)"/>
        </g>
        <path fill="#263238" d="M202.04 0l-11.034 12.169L175 9.129l8.907 31.015 5.922 37.785L213.178 106h20.557l23.055-27.994 6.215-38.144L272.5 9.129l-15.86 3.04L245.189 0z"/>
        <path fill="#D0D8DC" fill-rule="nonzero" d="M243.207 48.607l-6.164-1.371 4.794 6.854v21.248l16.435-13.709V38.326l-7.533 2.741zM204.859 48.607l6.163-1.371-4.794 6.854v21.248l-16.435-13.709V38.326l7.533 2.741z"/>
        <path fill="#D0D8DC" d="M208.283 55.46l5.478-8.224 3.424 2.056h13.695l3.424-2.056 5.479 8.225v30.843l-4.11 6.169-4.793 4.798h-13.695l-4.794-4.798-4.108-6.169z"/>
        <g fill="#263238">
            <path d="M230.193 76.013l9.588-6.83.004 2.738-9.588 6.83zM230.193 80.81l9.588-6.83.004 2.739-9.588 6.83zM230.193 85.609l9.588-6.83.004 2.737-9.588 6.83z"/>
        </g>
        <g fill="#263238">
            <path d="M217.872 75.327l-9.588-6.83-.004 2.738 9.588 6.83zM217.872 80.125l-9.588-6.83-.004 2.738 9.588 6.83zM217.872 84.923l-9.588-6.83-.004 2.738 9.588 6.83z"/>
        </g>
        <path fill="#7A858A" fill-rule="nonzero" d="M241.837 88.36l8.902-8.91v-8.91l-8.902 7.54zM206.228 88.36l-8.902-8.91v-8.91l8.902 7.54z"/>
        <path fill="#D0D8DC" d="M219.924 7.482h2.739v39.069h-4.109l-8.902-26.046 5.478-13.023h2.055v15.765l2.739 1.37V7.483zm5.478 0h2.74v17.136l2.738-1.371V7.482h2.055l5.478 13.023-8.217 26.046h-4.794V7.482z"/>
        <path fill="#D0D8DC" fill-rule="nonzero" d="M218.554 46.55L189.11 35.585 185 18.449l26.25 2.127L220 46.551zM230.196 46.55l29.445-10.966 4.109-17.135-26.25 2.127-8.75 25.975zM239.783 18.449l14.38-1.371-9.587-9.596h-9.587zM208.283 18.449l-14.38-1.371 9.586-9.596h9.587z"/>
    </g>
</svg>
