<svg width="171" height="40" fill="none" xmlns="http://www.w3.org/2000/svg"><path fill-rule="evenodd" clip-rule="evenodd" d="M0 14.706l4.51 4.575v11.574l2.707 2.692h156.06l2.705-2.692V19.192l4.511-4.486H0z" fill="#263238"/><mask id="a" maskUnits="userSpaceOnUse" x="0" y="0" width="171" height="39"><path fill-rule="evenodd" clip-rule="evenodd" d="M0 38.602h170.696V.462H0v38.14z" fill="#fff"/></mask><g mask="url(#a)" fill-rule="evenodd" clip-rule="evenodd"><path d="M12.071 23.65h6.634v-2.78H12.07v2.78zm6.763-5.3c1.333 0 2.423 1.089 2.423 2.406v3.024c0 1.317-1.09 2.406-2.423 2.406l-6.763.017c.033 0 .049.032.049.097 0 0-.033 0-.049-.017v3.756h-2.52v-11.69h9.283zm6.08 5.3h6.633v-2.78h-6.633v2.78zm9.185.13c0 1.317-1.089 2.406-2.422 2.406h-.114c.829.976 1.724 2.016 2.536 2.991v.862h-2.601l-3.235-3.853-3.35.017c.033 0 .049.032.049.097 0 0-.032 0-.048-.017v3.756h-2.52v-11.69h9.283c1.333 0 2.422 1.09 2.422 2.407v3.024zm1.738 6.26h2.537V18.332h-2.537V30.04zm14.08-11.707h2.617V30.04h-2.536v-7.853c-1.317 1.561-2.731 3.285-4.032 4.813l-4.048-4.796v7.836h-2.52V18.333h2.601l3.967 4.732 3.95-4.732zm15.411 2.537h-8.259v2.048h6.65v2.537h-6.65v2.048h8.259v2.536H54.516V18.333h10.812v2.537z" fill="#40C4FF"/><path d="M109.254 18.333v2.537h-8.26v2.049h6.65v2.536h-6.65v4.584h-2.552V18.333h10.812zm3.461 5.398h6.634V20.87h-6.634v2.862zm6.764-5.398a2.415 2.415 0 012.423 2.407v9.299h-2.553v-3.772h-6.634v3.772h-2.52v-9.3a2.402 2.402 0 012.407-2.406h6.877zm6.795 2.537v6.633h9.153v2.536h-9.267a2.4 2.4 0 01-2.406-2.406V20.74a2.4 2.4 0 012.406-2.407h9.267v2.537h-9.153zm21.687 0h-8.259v2.048h6.649v2.537h-6.649v2.048h8.259v2.536h-10.812V18.333h10.812v2.537zm13.232.959h-2.552v-.96h-6.633v2.05h6.78a2.41 2.41 0 012.405 2.405v2.31a2.41 2.41 0 01-2.405 2.405h-6.894a2.4 2.4 0 01-2.406-2.406v-1.089h2.52v.96h6.633v-2.05h-6.747a2.4 2.4 0 01-2.406-2.406V20.74a2.4 2.4 0 012.406-2.407h6.894a2.41 2.41 0 012.405 2.407v1.089z" fill="#ECEFF1"/></g><path fill-rule="evenodd" clip-rule="evenodd" d="M74.278 0l-4.057 4.484-5.884-1.12 3.274 11.43 2.178 13.923 8.584 10.345h7.557l8.476-10.316 2.285-14.057 3.491-11.325-5.83 1.12L90.14 0H74.278z" fill="#263238"/><path d="M89.412 17.912l-2.265-.505 1.762 2.526v7.83l6.042-5.052v-8.588l-2.77 1.01-2.769 2.779zm-14.098 0l2.266-.505-1.762 2.526v7.83l-6.042-5.052v-8.588l2.769 1.01 2.77 2.779z" fill="#D0D8DC"/><path fill-rule="evenodd" clip-rule="evenodd" d="M76.573 20.438l2.014-3.031 1.259.758h5.035l1.259-.758 2.014 3.03v11.367l-1.51 2.273-1.763 1.768h-5.035l-1.763-1.768-1.51-2.273V20.438z" fill="#D0D8DC"/><path d="M88.909 32.561l3.273-3.283v-3.284l-3.273 2.779v3.788zm-13.091 0l-3.273-3.283v-3.284l3.273 2.779v3.788z" fill="#D0D8DC"/><path fill-rule="evenodd" clip-rule="evenodd" d="M79.09 2.757l-2.014 4.8 3.273 9.597h1.51V2.757h-2.768zm3.777 0v14.397h1.762l3.021-9.598-2.014-4.799h-2.77z" fill="#D0D8DC"/><path d="M80.35 17.154l-10.826-4.041-1.51-6.314 9.65.784 3.217 9.571h-.532zm4.28 0l10.825-4.041 1.51-6.314-9.65.784-3.217 9.571h.531zm3.524-10.355l5.287-.506-3.525-3.536H86.39L88.154 6.8zm-11.581 0l-5.287-.506 3.525-3.536h3.524L76.573 6.8z" fill="#D0D8DC"/></svg>